<svg version="1.1" xmlns="http://www.w3.org/2000/svg" viewBox="-288.7 -1047.7 3898.9 1756.4"><desc>Created with Snap</desc><defs></defs><g><g><g transform="matrix(0.5,0,0,-0.5,0,0)"><path d="M410 330L410 1073Q410 1102 405 1115Q401 1128 401 1139Q401 1154 417 1164Q433 1174 455 1174Q506 1174 537 1147Q569 1121 569 1083L569 324Q569 250 581 198Q593 146 617 113Q641 80 676 64Q711 49 756 49Q799 49 835 65Q872 81 899 109Q926 137 941 175Q956 213 956 258Q956 327 932 373Q908 419 869 447Q831 475 782 486Q734 498 686 498Q677 498 668 509Q659 521 653 538Q647 555 644 574Q641 594 643 611Q645 628 652 639Q660 651 676 651Q700 651 734 657Q768 663 805 678Q842 694 878 720Q914 746 943 786Q972 827 990 882Q1008 938 1008 1012Q1008 1070 988 1126Q969 1183 926 1227Q883 1272 816 1299Q749 1327 655 1327Q532 1327 444 1289Q356 1251 300 1187Q245 1123 219 1038Q193 954 193 860Q193 792 204 745Q216 699 230 669Q244 640 256 626Q268 612 270 610Q287 615 294 606Q301 597 301 582Q301 568 291 540Q282 512 266 487Q250 463 229 450Q208 438 186 455Q174 466 149 495Q124 524 99 572Q75 621 56 689Q37 758 37 848Q37 992 82 1108Q127 1225 208 1308Q290 1391 403 1436Q516 1481 653 1481Q769 1481 863 1449Q958 1418 1025 1358Q1092 1298 1128 1211Q1165 1125 1165 1016Q1165 932 1145 864Q1125 796 1089 742Q1054 688 1005 646Q957 605 901 575Q946 562 985 536Q1024 511 1053 472Q1082 433 1099 380Q1116 328 1116 262Q1116 185 1088 120Q1061 55 1013 8Q965 -39 899 -66Q834 -92 758 -92Q657 -92 590 -62Q523 -31 483 24Q443 80 426 157Q410 235 410 330ZM2011 338Q2013 350 2024 358Q2036 366 2051 369Q2066 372 2082 369Q2099 366 2111 355Q2124 345 2129 326Q2135 308 2128 279Q2119 237 2098 200Q2078 164 2047 136Q2016 108 1974 92Q1932 76 1880 76Q1852 76 1827 79Q1803 82 1780 90Q1742 24 1682 -17Q1622 -57 1534 -57Q1456 -57 1400 -27Q1344 4 1307 56Q1270 109 1252 178Q1235 247 1235 324Q1235 437 1261 526Q1288 616 1323 678Q1358 741 1392 774Q1427 807 1444 807Q1464 807 1480 789Q1497 772 1504 748Q1512 725 1508 701Q1505 677 1485 664Q1473 645 1456 620Q1440 595 1425 557Q1411 520 1401 466Q1391 412 1391 336Q1391 271 1402 223Q1414 175 1434 142Q1455 110 1481 94Q1508 78 1538 78Q1582 78 1610 99Q1639 121 1659 156Q1587 218 1549 313Q1512 409 1512 520Q1512 568 1522 611Q1533 655 1553 688Q1574 721 1605 740Q1636 760 1677 760Q1713 760 1745 734Q1777 708 1801 662Q1825 616 1838 553Q1852 490 1852 416Q1852 359 1845 303Q1838 247 1823 195Q1834 191 1843 190Q1853 190 1864 190Q1897 190 1922 202Q1948 214 1966 234Q1984 254 1995 281Q2006 308 2011 338ZM1620 528Q1620 459 1641 397Q1663 335 1698 289Q1704 338 1704 383Q1704 435 1702 479Q1701 524 1695 556Q1690 588 1680 606Q1671 625 1655 625Q1620 625 1620 528ZM2761 338Q2763 350 2774 358Q2786 366 2801 369Q2816 372 2832 369Q2849 366 2861 355Q2874 345 2879 326Q2885 308 2878 279Q2869 237 2848 200Q2828 164 2797 136Q2766 108 2724 92Q2682 76 2630 76Q2602 76 2577 79Q2553 82 2530 90Q2492 24 2432 -17Q2372 -57 2284 -57Q2206 -57 2150 -27Q2094 4 2057 56Q2020 109 2002 178Q1985 247 1985 324Q1985 437 2011 526Q2038 616 2073 678Q2108 741 2142 774Q2177 807 2194 807Q2214 807 2230 789Q2247 772 2254 748Q2262 725 2258 701Q2255 677 2235 664Q2223 645 2206 620Q2190 595 2175 557Q2161 520 2151 466Q2141 412 2141 336Q2141 271 2152 223Q2164 175 2184 142Q2205 110 2231 94Q2258 78 2288 78Q2332 78 2360 99Q2389 121 2409 156Q2337 218 2299 313Q2262 409 2262 520Q2262 568 2272 611Q2283 655 2303 688Q2324 721 2355 740Q2386 760 2427 760Q2463 760 2495 734Q2527 708 2551 662Q2575 616 2588 553Q2602 490 2602 416Q2602 359 2595 303Q2588 247 2573 195Q2584 191 2593 190Q2603 190 2614 190Q2647 190 2672 202Q2698 214 2716 234Q2734 254 2745 281Q2756 308 2761 338ZM2370 528Q2370 459 2391 397Q2413 335 2448 289Q2454 338 2454 383Q2454 435 2452 479Q2451 524 2445 556Q2440 588 2430 606Q2421 625 2405 625Q2370 625 2370 528ZM2917 1190L2917 606Q2928 627 2938 662Q2949 698 2958 741Q2968 784 2976 831Q2984 878 2990 923Q2996 968 2999 1007Q3003 1047 3003 1075Q3003 1177 2988 1224Q2973 1272 2948 1272Q2940 1272 2934 1264Q2928 1256 2924 1243Q2920 1231 2918 1216Q2917 1202 2917 1190ZM3208 297Q3214 327 3226 340Q3239 354 3253 355Q3268 357 3283 348Q3298 340 3309 326Q3320 312 3325 294Q3331 277 3327 260Q3313 219 3287 164Q3261 109 3221 60Q3181 11 3127 -23Q3073 -57 3003 -57Q2944 -57 2899 -38Q2854 -18 2823 17Q2793 53 2777 102Q2762 152 2762 213L2762 1145Q2762 1202 2776 1250Q2791 1299 2816 1333Q2842 1368 2876 1387Q2910 1407 2948 1407Q2993 1407 3024 1390Q3055 1374 3075 1347Q3095 1320 3106 1285Q3118 1250 3123 1213Q3128 1177 3129 1141Q3130 1106 3130 1077Q3130 1002 3116 919Q3102 837 3080 757Q3059 677 3033 603Q3008 530 2984 473Q2961 416 2942 380Q2924 344 2917 338L2917 219Q2917 157 2943 117Q2969 78 3026 78Q3061 78 3091 99Q3122 121 3145 153Q3169 186 3185 224Q3201 263 3208 297ZM3467 -78Q3429 -78 3405 -70Q3381 -61 3368 -47L3368 -713Q3368 -741 3357 -759Q3346 -776 3329 -786Q3313 -796 3294 -800Q3275 -803 3260 -803Q3229 -803 3221 -787Q3213 -771 3213 -748L3213 682Q3213 704 3209 717Q3206 730 3202 737Q3199 745 3195 749Q3192 754 3192 760Q3192 765 3198 769Q3204 773 3214 776Q3224 779 3235 780Q3247 782 3258 782Q3307 782 3336 755Q3366 729 3368 694Q3400 741 3445 772Q3490 803 3555 803Q3615 803 3659 775Q3704 747 3733 698Q3763 650 3777 584Q3792 518 3792 442Q3792 356 3777 277Q3762 199 3739 143Q3790 146 3823 157Q3856 168 3878 187Q3901 207 3917 235Q3934 263 3952 299Q3966 328 3975 341Q3985 354 3999 354Q4012 354 4025 346Q4039 338 4049 326Q4060 314 4066 300Q4073 287 4073 276Q4073 241 4049 196Q4025 151 3975 111Q3926 71 3850 43Q3775 16 3673 16Q3631 -29 3576 -54Q3521 -78 3467 -78ZM3503 666Q3481 666 3460 653Q3440 640 3422 617Q3404 595 3390 563Q3377 531 3368 494L3368 51Q3390 83 3440 100Q3490 117 3561 123Q3579 150 3592 187Q3606 225 3615 265Q3624 305 3628 343Q3633 381 3633 410Q3633 480 3622 529Q3612 578 3594 608Q3576 639 3552 652Q3529 666 3503 666ZM4398 -57Q4362 -57 4324 -46Q4287 -35 4256 -8Q4226 19 4206 63Q4187 108 4187 176Q4187 275 4213 385Q4240 496 4290 629L4134 629L4111 629Q4110 599 4107 553Q4105 507 4099 455Q4093 403 4083 350Q4074 297 4060 252Q4050 220 4028 215Q4007 210 3986 222Q3965 235 3952 259Q3939 283 3946 309Q3954 340 3960 384Q3966 429 3969 478Q3973 528 3975 577Q3977 627 3978 666Q3940 687 3915 719Q3890 752 3890 797Q3890 818 3898 835Q3907 853 3921 865Q3935 878 3954 884Q3973 891 3993 891Q4011 891 4030 886Q4050 881 4067 868Q4085 855 4099 834Q4113 813 4122 782Q4147 779 4164 777Q4182 776 4194 775Q4206 774 4214 774Q4222 774 4230 774L4337 774Q4346 774 4363 763Q4381 752 4398 734Q4415 717 4426 697Q4438 677 4435 659Q4435 653 4428 630Q4421 607 4411 572Q4401 537 4389 491Q4377 446 4367 396Q4357 346 4350 292Q4343 239 4343 188Q4343 167 4348 147Q4353 127 4363 111Q4373 96 4388 87Q4404 78 4425 78Q4460 78 4485 100Q4510 122 4527 155Q4544 188 4554 226Q4565 265 4572 299Q4578 331 4592 345Q4606 360 4621 360Q4633 360 4646 352Q4659 345 4669 333Q4680 321 4686 306Q4693 291 4693 276Q4693 271 4692 268Q4691 265 4691 262Q4677 211 4654 155Q4632 99 4597 52Q4562 5 4513 -26Q4464 -57 4398 -57ZM5052 596Q5052 539 5032 479Q5013 419 4974 365Q4936 312 4879 269Q4823 227 4749 205Q4759 179 4775 155Q4792 132 4815 115Q4838 98 4868 88Q4899 78 4939 78Q4999 78 5042 100Q5085 123 5114 160Q5144 197 5162 243Q5180 289 5189 336Q5196 370 5217 381Q5239 393 5261 387Q5284 381 5300 361Q5317 342 5314 315Q5310 284 5300 244Q5291 204 5272 163Q5253 122 5223 82Q5194 43 5151 12Q5108 -19 5050 -38Q4992 -57 4917 -57Q4847 -57 4781 -30Q4716 -2 4665 49Q4615 101 4584 176Q4554 252 4554 348Q4554 445 4581 528Q4608 612 4652 673Q4696 734 4752 768Q4808 803 4867 803Q4910 803 4944 788Q4979 773 5003 745Q5027 718 5039 680Q5052 642 5052 596ZM4722 354Q4722 345 4723 336Q4724 327 4724 317Q4762 335 4793 363Q4824 391 4846 427Q4868 463 4880 505Q4892 548 4892 594Q4892 628 4880 647Q4869 666 4849 666Q4824 666 4804 649Q4785 632 4770 604Q4756 577 4746 542Q4737 508 4731 473Q4725 438 4723 406Q4721 375 4722 354ZM5305 281Q5297 249 5275 241Q5253 234 5231 243Q5210 252 5195 274Q5181 296 5187 322Q5202 390 5230 472Q5259 555 5287 637Q5272 660 5263 683Q5254 707 5254 733Q5254 759 5273 787Q5293 816 5320 840Q5348 864 5377 879Q5407 895 5428 895Q5465 895 5483 870Q5502 845 5502 803Q5502 780 5494 757Q5487 735 5478 715Q5469 696 5461 682Q5454 668 5453 664Q5489 600 5528 551Q5567 502 5599 454Q5632 406 5653 352Q5674 298 5674 225Q5674 207 5671 188Q5669 169 5664 152Q5700 159 5727 174Q5755 189 5775 208Q5796 228 5809 251Q5823 274 5832 299Q5843 328 5854 341Q5865 354 5879 354Q5892 354 5905 345Q5919 337 5929 324Q5940 311 5946 297Q5953 283 5953 272Q5953 257 5945 236Q5937 215 5923 193Q5910 171 5893 150Q5876 130 5858 115Q5810 76 5745 49Q5680 23 5584 16Q5547 -16 5496 -37Q5446 -57 5383 -57Q5351 -57 5317 -49Q5284 -41 5253 -29Q5223 -16 5198 -1Q5173 14 5158 29Q5120 65 5109 101Q5098 138 5103 167Q5109 196 5125 214Q5141 233 5158 233Q5168 233 5189 224Q5211 216 5239 202Q5267 189 5300 174Q5333 159 5366 145Q5399 132 5430 123Q5462 115 5488 115Q5505 135 5519 168Q5533 201 5533 240Q5533 288 5520 329Q5507 370 5486 405Q5465 440 5438 470Q5412 501 5385 528Q5361 469 5343 411Q5325 354 5305 281ZM5958 281Q5950 249 5928 241Q5906 234 5884 243Q5863 252 5848 274Q5834 296 5840 322Q5855 390 5883 472Q5912 555 5940 637Q5925 660 5916 683Q5907 707 5907 733Q5907 759 5926 787Q5946 816 5973 840Q6001 864 6030 879Q6060 895 6081 895Q6118 895 6136 870Q6155 845 6155 803Q6155 780 6147 757Q6140 735 6131 715Q6122 696 6114 682Q6107 668 6106 664Q6142 600 6181 551Q6220 502 6252 454Q6285 406 6306 352Q6327 298 6327 225Q6327 207 6324 188Q6322 169 6317 152Q6353 159 6380 174Q6408 189 6428 208Q6449 228 6462 251Q6476 274 6485 299Q6496 328 6507 341Q6518 354 6532 354Q6545 354 6558 345Q6572 337 6582 324Q6593 311 6599 297Q6606 283 6606 272Q6606 257 6598 236Q6590 215 6576 193Q6563 171 6546 150Q6529 130 6511 115Q6463 76 6398 49Q6333 23 6237 16Q6200 -16 6149 -37Q6099 -57 6036 -57Q6004 -57 5970 -49Q5937 -41 5906 -29Q5876 -16 5851 -1Q5826 14 5811 29Q5773 65 5762 101Q5751 138 5756 167Q5762 196 5778 214Q5794 233 5811 233Q5821 233 5842 224Q5864 216 5892 202Q5920 189 5953 174Q5986 159 6019 145Q6052 132 6083 123Q6115 115 6141 115Q6158 135 6172 168Q6186 201 6186 240Q6186 288 6173 329Q6160 370 6139 405Q6118 440 6091 470Q6065 501 6038 528Q6014 469 5996 411Q5978 354 5958 281Z" fill="#210070" style=""></path></g></g></g></svg>